<svg xmlns="http://www.w3.org/2000/svg" width="126" height="120" viewBox="0 0 44 32" fill="#2e3340" xmlns:v="https://vecta.io/nano"><path d="M31.973 11.478c-7.885 0-10.03 2.245-10.03 5.426l.883.145c-.063.484-.047.985-.032 1.47l-.836-.113c0 3.246 1.72 4.78 5.346 4.78.867 0 2.807-.404 2.807-.904 0-.452-4.494 1.453-4.494-3.8 0-6.75 9.273-5.75 9.273-6.314.016-.55-1.892-.678-2.917-.678zm-5.456 11.175c-2.444 0-3.942-1.68-3.942-3.634l2.003.194c0 2.713 2.02 3.44 1.94 3.44zm-1.86-5.96l-2.145-.226c0-2.955 3.075-4.5 9.02-4.5-2.697 0-6.876 1.615-6.876 4.716zM27.1 8.12c-6.53 0-12.963 2.212-12.963 8.333l1.325.178c-.095.743-.063 1.518-.016 2.26l-1.262-.178c0 2.988 1.782 7.25 7.38 7.25.9 0 5.14-.8 5.14-1.324 0-.436-.994-.194-1.325-.194-4.494 0-5.52-3.278-5.52-5.684 0-3.133.883-9.22 15.328-9.22.173 0 1.198.178 1.198-.355S31.627 8.12 27.1 8.12zm-4.384 17.2a11.88 11.88 0 0 1-1.687.129c-3.595 0-6.245-3.085-6.245-6.104l3.58.34s.268 1.502.378 1.84a7.35 7.35 0 0 0 .536 1.26 5.04 5.04 0 0 0 3.438 2.535zm-4.216-8.9L14.7 16c0-4.748 5.677-7.412 12.616-7.412a44.08 44.08 0 0 1 5.046.323S18.5 9.525 18.5 16.42zM21.773 3C11.648 3 4 7.056 4 14l2 .5c-.22 1.114-.123 2.098-.14 3.228L4 17.276C4 28.58 11.522 29 15.78 29c2.54 0 6.718-.646 6.718-1.26 0-.372-.63-.162-2.003-.162-1.198 0-8.263-.3-8.263-8.56 0-10.707 8.8-13.065 20.8-13.065 4.037 0 4.968.888 4.968.08C38.016 5.067 29.58 3 21.773 3zm-4.07 25.532c-3.816 0-13.184.662-13.184-10.562 1.75.452 3.722.904 5.66 1.147.016 8.64 7.522 9.415 7.522 9.415zm10.6-23.756c-17.426 0-17.7 9.98-17.7 9.98s-3.8-.727-5.724-1.292c-.08 0-.016-9.835 17.33-9.835 6.828 0 11.275 1.276 11.275 1.276-1.403-.097-3.6-.13-5.172-.13z"/></svg>