<svg xmlns="http://www.w3.org/2000/svg" width="126" height="120" viewBox="0 0 256 259" preserveAspectRatio="xMidYMid" xmlns:v="https://vecta.io/nano"><path d="M127.78 0C60.42 0 5.24 52.412 0 119.014l68.724 28.674a35.81 35.81 0 0 1 20.426-6.366 36.42 36.42 0 0 1 2.02.055l30.565-44.71v-.627c0-26.903 21.7-48.796 48.353-48.796S218.44 69.14 218.44 96.042s-21.7 48.805-48.353 48.805c-.37 0-.73-.01-1.098-.018l-43.592 31.377a36.6 36.6 0 0 1 .046 1.734c0 20.205-16.284 36.636-36.295 36.636-17.566 0-32.263-12.658-35.584-29.412L4.4 164.654c15.223 54.313 64.673 94.132 123.37 94.132 70.818 0 128.22-57.94 128.22-129.393C256 57.93 198.597 0 127.78 0zM80.352 196.332l-15.75-6.57c2.786 5.868 7.62 10.776 14.033 13.47 13.857 5.83 29.837-.803 35.612-14.798 2.795-6.772 2.814-14.245.046-21.035s-8-12.086-14.706-14.91c-6.67-2.795-13.81-2.694-20.085-.304l16.274 6.8c10.222 4.3 15.057 16.145 10.794 26.46-4.253 10.315-15.998 15.195-26.22 10.896zm121.957-100.3c0-17.926-14.457-32.52-32.217-32.52-17.77 0-32.226 14.595-32.226 32.52s14.457 32.512 32.226 32.512c17.76 0 32.217-14.586 32.217-32.512zm-56.37-.055c0-13.488 10.84-24.42 24.2-24.42 13.368 0 24.21 10.933 24.21 24.42s-10.84 24.42-24.21 24.42c-13.36 0-24.2-10.933-24.2-24.42z" fill="#1a1918"/></svg>