<svg xmlns="http://www.w3.org/2000/svg" width="126" height="120" viewBox="0 0 256 180" preserveAspectRatio="xMidYMid" xmlns:v="https://vecta.io/nano"><defs><linearGradient x1="49.9804764%" y1="8.68053889e-07%" x2="49.9804764%" y2="100.030167%" id="A"><stop stop-color="#e52d27" offset="0%"/><stop stop-color="#bf171d" offset="100%"/></linearGradient></defs><path d="M101.6 123.2l69.2-35.8-69.2-36.1v71.9z" fill="#fff"/><path d="M101.6 51.3l60.7 40.5 8.5-4.4-69.2-36.1z" opacity=".12" fill="#420000"/><path d="M253.3 38.8s-2.5-17.6-10.196-25.4c-9.696-10.2-20.592-10.2-25.7-10.8C181.73 0 128.05 0 128.05 0h-.1S74.27 0 38.385 2.6c-4.998.6-15.894.6-25.7 10.8C5.098 21.2 2.6 38.8 2.6 38.8S0 59.6 0 80.3v19.4c0 20.7 2.6 41.4 2.6 41.4s2.5 17.6 10.196 25.4c9.696 10.2 22.49 9.9 28.19 10.9 20.492 2 86.966 2.6 86.966 2.6s53.78-.1 89.565-2.7c4.998-.6 15.894-.6 25.7-10.8 7.697-7.8 10.196-25.4 10.196-25.4s2.6-20.7 2.6-41.4V80.3c-.1-20.7-2.7-41.5-2.7-41.5h0zm-151.74 84.4V51.3l69.173 36.1-69.173 35.8z" fill="url(#A)"/></svg>